<svg width="502" height="150" viewBox="0 0 502 150" fill="none" xmlns="http://www.w3.org/2000/svg">
<rect width="30" height="30" fill="#DB485A"/>
<rect x="30" width="30" height="30" fill="#DB485A"/>
<rect x="30" y="30" width="30" height="30" transform="rotate(90 30 30)" fill="#DB485A"/>
<rect x="120" width="30" height="30" transform="rotate(90 120 0)" fill="#3AB8D4"/>
<rect x="30" y="60" width="30" height="30" transform="rotate(90 30 60)" fill="#DB485A"/>
<rect x="60" y="60" width="30" height="30" transform="rotate(90 60 60)" fill="#DB485A"/>
<rect x="90" y="60" width="30" height="30" transform="rotate(90 90 60)" fill="#935A9F"/>
<rect x="90" y="30" width="30" height="30" transform="rotate(90 90 30)" fill="#935A9F"/>
<rect x="60" y="90" width="30" height="30" transform="rotate(90 60 90)" fill="#DB485A"/>
<rect x="90" y="90" width="30" height="30" transform="rotate(90 90 90)" fill="#935A9F"/>
<rect x="30" y="120" width="30" height="30" transform="rotate(90 30 120)" fill="#DB485A"/>
<rect x="60" y="120" width="30" height="30" transform="rotate(90 60 120)" fill="#DB485A"/>
<rect x="90" y="120" width="30" height="30" transform="rotate(90 90 120)" fill="#935A9F"/>
<rect x="120" y="120" width="30" height="30" transform="rotate(90 120 120)" fill="#935A9F"/>
<path d="M188.219 95.75C188.219 94.1562 188.031 92.75 187.656 91.5312C187.281 90.2812 186.625 89.1562 185.688 88.1562C184.75 87.1562 183.438 86.2031 181.75 85.2969C180.062 84.3906 177.922 83.4688 175.328 82.5312C172.516 81.5312 169.969 80.4219 167.688 79.2031C165.406 77.9531 163.453 76.5312 161.828 74.9375C160.234 73.3438 159 71.5156 158.125 69.4531C157.25 67.3906 156.812 65.0312 156.812 62.375C156.812 59.7188 157.266 57.2656 158.172 55.0156C159.109 52.7656 160.422 50.8125 162.109 49.1562C163.828 47.4688 165.891 46.1562 168.297 45.2188C170.703 44.2812 173.391 43.8125 176.359 43.8125C180.797 43.8125 184.531 44.7969 187.562 46.7656C190.625 48.7031 192.938 51.25 194.5 54.4062C196.062 57.5312 196.844 60.875 196.844 64.4375H188.219C188.219 61.875 187.797 59.6094 186.953 57.6406C186.141 55.6406 184.859 54.0781 183.109 52.9531C181.391 51.7969 179.141 51.2188 176.359 51.2188C173.859 51.2188 171.797 51.7031 170.172 52.6719C168.578 53.6406 167.391 54.9531 166.609 56.6094C165.859 58.2656 165.484 60.1562 165.484 62.2812C165.484 63.7188 165.734 65.0312 166.234 66.2188C166.734 67.375 167.5 68.4531 168.531 69.4531C169.594 70.4531 170.906 71.375 172.469 72.2188C174.062 73.0625 175.938 73.875 178.094 74.6562C181.438 75.75 184.297 76.9688 186.672 78.3125C189.047 79.6562 190.984 81.1719 192.484 82.8594C193.984 84.5156 195.078 86.4062 195.766 88.5312C196.484 90.625 196.844 93 196.844 95.6562C196.844 98.4375 196.375 100.953 195.438 103.203C194.531 105.453 193.203 107.375 191.453 108.969C189.703 110.562 187.594 111.797 185.125 112.672C182.656 113.516 179.875 113.938 176.781 113.938C174.094 113.938 171.453 113.5 168.859 112.625C166.297 111.75 163.969 110.438 161.875 108.688C159.781 106.938 158.109 104.781 156.859 102.219C155.609 99.625 154.984 96.625 154.984 93.2188H163.609C163.609 95.5625 163.953 97.5781 164.641 99.2656C165.328 100.922 166.281 102.297 167.5 103.391C168.719 104.484 170.109 105.297 171.672 105.828C173.266 106.328 174.969 106.578 176.781 106.578C179.281 106.578 181.375 106.141 183.062 105.266C184.781 104.391 186.062 103.141 186.906 101.516C187.781 99.8906 188.219 97.9688 188.219 95.75ZM225.531 62.2812V68.9375H201.859V62.2812H225.531ZM209.594 49.9531H217.891V100.438C217.891 102.156 218.094 103.453 218.5 104.328C218.938 105.203 219.484 105.781 220.141 106.062C220.797 106.344 221.5 106.484 222.25 106.484C222.812 106.484 223.438 106.422 224.125 106.297C224.812 106.141 225.281 106.016 225.531 105.922L225.484 113C224.922 113.219 224.172 113.422 223.234 113.609C222.297 113.828 221.109 113.938 219.672 113.938C217.891 113.938 216.234 113.516 214.703 112.672C213.172 111.828 211.938 110.422 211 108.453C210.062 106.453 209.594 103.766 209.594 100.391V49.9531ZM261.062 101.281V62.2812H269.359V113H261.484L261.062 101.281ZM262.609 90.5938L265.891 90.5C265.891 93.875 265.594 97 265 99.875C264.438 102.719 263.5 105.188 262.188 107.281C260.906 109.375 259.203 111.016 257.078 112.203C254.953 113.359 252.344 113.938 249.25 113.938C247.156 113.938 245.25 113.578 243.531 112.859C241.844 112.141 240.375 111.031 239.125 109.531C237.906 108.031 236.953 106.078 236.266 103.672C235.609 101.266 235.281 98.375 235.281 95V62.2812H243.531V95.0938C243.531 97.375 243.734 99.2656 244.141 100.766C244.547 102.234 245.094 103.406 245.781 104.281C246.469 105.125 247.234 105.719 248.078 106.062C248.922 106.406 249.781 106.578 250.656 106.578C253.594 106.578 255.938 105.875 257.688 104.469C259.438 103.031 260.688 101.109 261.438 98.7031C262.219 96.2656 262.609 93.5625 262.609 90.5938ZM308.406 103.156V41H316.656V113H309.109L308.406 103.156ZM280.047 90.0781V85.3438C280.047 81.1562 280.453 77.5625 281.266 74.5625C282.078 71.5312 283.234 69.0469 284.734 67.1094C286.234 65.1406 288.031 63.6875 290.125 62.75C292.219 61.8125 294.531 61.3438 297.062 61.3438C299.688 61.3438 301.938 61.875 303.812 62.9375C305.719 64 307.312 65.5469 308.594 67.5781C309.875 69.5781 310.875 72.0156 311.594 74.8906C312.344 77.7344 312.844 80.9531 313.094 84.5469V90.875C312.812 94.4375 312.297 97.6406 311.547 100.484C310.828 103.328 309.828 105.75 308.547 107.75C307.266 109.75 305.672 111.281 303.766 112.344C301.859 113.406 299.594 113.938 296.969 113.938C294.469 113.938 292.188 113.453 290.125 112.484C288.062 111.484 286.266 110 284.734 108.031C283.234 106.031 282.078 103.547 281.266 100.578C280.453 97.5781 280.047 94.0781 280.047 90.0781ZM288.344 85.3438V90.0781C288.344 92.8906 288.547 95.3438 288.953 97.4375C289.359 99.5 290 101.219 290.875 102.594C291.75 103.938 292.859 104.938 294.203 105.594C295.578 106.25 297.219 106.578 299.125 106.578C301.438 106.578 303.328 106.016 304.797 104.891C306.266 103.766 307.438 102.281 308.312 100.438C309.219 98.5625 309.938 96.5469 310.469 94.3906V81.0781C310.156 79.4844 309.703 77.9531 309.109 76.4844C308.516 74.9844 307.766 73.6562 306.859 72.5C305.984 71.3125 304.906 70.375 303.625 69.6875C302.375 69 300.906 68.6562 299.219 68.6562C297.312 68.6562 295.656 69 294.25 69.6875C292.875 70.375 291.75 71.4062 290.875 72.7812C290.031 74.1562 289.391 75.8906 288.953 77.9844C288.547 80.0781 288.344 82.5312 288.344 85.3438ZM341.219 107.75L352.516 62.2812H361.328L344.594 120.828C344.188 122.078 343.641 123.422 342.953 124.859C342.297 126.328 341.453 127.719 340.422 129.031C339.391 130.344 338.156 131.406 336.719 132.219C335.281 133.062 333.594 133.484 331.656 133.484C331.062 133.484 330.297 133.391 329.359 133.203C328.453 133.016 327.797 132.859 327.391 132.734V125.703C327.578 125.734 327.875 125.766 328.281 125.797C328.688 125.859 328.984 125.891 329.172 125.891C330.797 125.891 332.172 125.625 333.297 125.094C334.453 124.594 335.438 123.734 336.25 122.516C337.062 121.328 337.75 119.688 338.312 117.594L341.219 107.75ZM333.906 62.2812L343.984 101.656L346.141 110.797L340.234 113.984L324.859 62.2812H333.906ZM378.391 41V113H370.141V41H378.391ZM400.422 62.2812V113H392.172V62.2812H400.422ZM391.703 48.8281C391.703 47.4219 392.094 46.2344 392.875 45.2656C393.656 44.2969 394.828 43.8125 396.391 43.8125C397.953 43.8125 399.125 44.2969 399.906 45.2656C400.719 46.2344 401.125 47.4219 401.125 48.8281C401.125 50.1719 400.719 51.3281 399.906 52.2969C399.125 53.2344 397.953 53.7031 396.391 53.7031C394.828 53.7031 393.656 53.2344 392.875 52.2969C392.094 51.3281 391.703 50.1719 391.703 48.8281ZM421.844 73.1094V113H413.547V62.2812H421.375L421.844 73.1094ZM419.828 85.7188L416.453 85.5781C416.422 82.1094 416.812 78.9062 417.625 75.9688C418.469 73 419.656 70.4219 421.188 68.2344C422.75 66.0469 424.609 64.3594 426.766 63.1719C428.922 61.9531 431.312 61.3438 433.938 61.3438C436 61.3438 437.875 61.6875 439.562 62.375C441.25 63.0312 442.688 64.0938 443.875 65.5625C445.062 67.0312 445.969 68.9375 446.594 71.2812C447.25 73.5938 447.578 76.4219 447.578 79.7656V113H439.281V79.6719C439.281 77.0156 438.984 74.8906 438.391 73.2969C437.828 71.6719 436.953 70.5 435.766 69.7812C434.609 69.0312 433.141 68.6562 431.359 68.6562C429.734 68.6562 428.219 69.1094 426.812 70.0156C425.406 70.9219 424.172 72.1719 423.109 73.7656C422.078 75.3594 421.266 77.1875 420.672 79.25C420.109 81.2812 419.828 83.4375 419.828 85.7188ZM468.391 41V113H460.094V41H468.391ZM494.125 62.2812L476.078 85.9531L464.922 98.7969L464.359 89.5625L472.047 78.9688L484.141 62.2812H494.125ZM486.531 113L472.281 88.8125L476.547 81.0781L496.188 113H486.531Z" fill="white"/>
</svg>
