<svg width="201" height="50" viewBox="0 0 201 50" fill="none" xmlns="http://www.w3.org/2000/svg">
<path d="M65.5078 31.8125C65.5078 31.1484 65.4297 30.5625 65.2734 30.0547C65.1172 29.5339 64.8438 29.0651 64.4531 28.6484C64.0625 28.2318 63.5156 27.8346 62.8125 27.457C62.1094 27.0794 61.2174 26.6953 60.1367 26.3047C58.9648 25.888 57.9036 25.4258 56.9531 24.918C56.0026 24.3971 55.1888 23.8047 54.5117 23.1406C53.8477 22.4766 53.3333 21.7148 52.9688 20.8555C52.6042 19.9961 52.4219 19.013 52.4219 17.9062C52.4219 16.7995 52.6107 15.7773 52.9883 14.8398C53.3789 13.9023 53.9258 13.0885 54.6289 12.3984C55.3451 11.6953 56.2044 11.1484 57.207 10.7578C58.2096 10.3672 59.3294 10.1719 60.5664 10.1719C62.4154 10.1719 63.9714 10.582 65.2344 11.4023C66.5104 12.2096 67.474 13.2708 68.125 14.5859C68.776 15.888 69.1016 17.2812 69.1016 18.7656H65.5078C65.5078 17.6979 65.332 16.7539 64.9805 15.9336C64.6419 15.1003 64.1081 14.4492 63.3789 13.9805C62.6628 13.4987 61.7253 13.2578 60.5664 13.2578C59.5247 13.2578 58.6654 13.4596 57.9883 13.8633C57.3242 14.2669 56.8294 14.8138 56.5039 15.5039C56.1914 16.194 56.0352 16.9818 56.0352 17.8672C56.0352 18.4661 56.1393 19.013 56.3477 19.5078C56.556 19.9896 56.875 20.4388 57.3047 20.8555C57.7474 21.2721 58.2943 21.6562 58.9453 22.0078C59.6094 22.3594 60.3906 22.6979 61.2891 23.0234C62.6823 23.4792 63.8737 23.987 64.8633 24.5469C65.8529 25.1068 66.6602 25.7383 67.2852 26.4414C67.9102 27.1315 68.3659 27.9193 68.6523 28.8047C68.9518 29.6771 69.1016 30.6667 69.1016 31.7734C69.1016 32.9323 68.9062 33.9805 68.5156 34.918C68.138 35.8555 67.5846 36.6562 66.8555 37.3203C66.1263 37.9844 65.2474 38.4987 64.2188 38.8633C63.1901 39.2148 62.0312 39.3906 60.7422 39.3906C59.6224 39.3906 58.5221 39.2083 57.4414 38.8438C56.3737 38.4792 55.4036 37.9323 54.5312 37.2031C53.6589 36.474 52.9622 35.5755 52.4414 34.5078C51.9206 33.4271 51.6602 32.1771 51.6602 30.7578H55.2539C55.2539 31.7344 55.3971 32.5742 55.6836 33.2773C55.9701 33.9674 56.3672 34.5404 56.875 34.9961C57.3828 35.4518 57.9622 35.7904 58.6133 36.0117C59.2773 36.2201 59.987 36.3242 60.7422 36.3242C61.7839 36.3242 62.6562 36.1419 63.3594 35.7773C64.0755 35.4128 64.6094 34.8919 64.9609 34.2148C65.3255 33.5378 65.5078 32.737 65.5078 31.8125ZM81.0547 17.8672V20.6406H71.1914V17.8672H81.0547ZM74.4141 12.7305H77.8711V33.7656C77.8711 34.4818 77.9557 35.0221 78.125 35.3867C78.3073 35.7513 78.5352 35.9922 78.8086 36.1094C79.082 36.2266 79.375 36.2852 79.6875 36.2852C79.9219 36.2852 80.1823 36.2591 80.4688 36.207C80.7552 36.1419 80.9505 36.0898 81.0547 36.0508L81.0352 39C80.8008 39.0911 80.4883 39.1758 80.0977 39.2539C79.707 39.3451 79.2122 39.3906 78.6133 39.3906C77.8711 39.3906 77.181 39.2148 76.543 38.8633C75.9049 38.5117 75.3906 37.9258 75 37.1055C74.6094 36.2721 74.4141 35.1523 74.4141 33.7461V12.7305ZM95.8594 34.1172V17.8672H99.3164V39H96.0352L95.8594 34.1172ZM96.5039 29.6641L97.8711 29.625C97.8711 31.0312 97.7474 32.3333 97.5 33.5312C97.2656 34.7161 96.875 35.7448 96.3281 36.6172C95.7943 37.4896 95.0846 38.1732 94.1992 38.668C93.3138 39.1497 92.2266 39.3906 90.9375 39.3906C90.0651 39.3906 89.2708 39.2409 88.5547 38.9414C87.8516 38.6419 87.2396 38.1797 86.7188 37.5547C86.2109 36.9297 85.8138 36.1159 85.5273 35.1133C85.2539 34.1107 85.1172 32.9062 85.1172 31.5V17.8672H88.5547V31.5391C88.5547 32.4896 88.6393 33.2773 88.8086 33.9023C88.9779 34.5143 89.2057 35.0026 89.4922 35.3672C89.7786 35.7188 90.0977 35.9661 90.4492 36.1094C90.8008 36.2526 91.1589 36.3242 91.5234 36.3242C92.7474 36.3242 93.724 36.0312 94.4531 35.4453C95.1823 34.8464 95.7031 34.0456 96.0156 33.043C96.3411 32.0273 96.5039 30.901 96.5039 29.6641ZM115.586 34.8984V9H119.023V39H115.879L115.586 34.8984ZM103.77 29.4492V27.4766C103.77 25.7318 103.939 24.2344 104.277 22.9844C104.616 21.7214 105.098 20.6862 105.723 19.8789C106.348 19.0586 107.096 18.4531 107.969 18.0625C108.841 17.6719 109.805 17.4766 110.859 17.4766C111.953 17.4766 112.891 17.6979 113.672 18.1406C114.466 18.5833 115.13 19.2279 115.664 20.0742C116.198 20.9076 116.615 21.9232 116.914 23.1211C117.227 24.306 117.435 25.6471 117.539 27.1445V29.7812C117.422 31.2656 117.207 32.6003 116.895 33.7852C116.595 34.9701 116.178 35.9792 115.645 36.8125C115.111 37.6458 114.447 38.2839 113.652 38.7266C112.858 39.1693 111.914 39.3906 110.82 39.3906C109.779 39.3906 108.828 39.1888 107.969 38.7852C107.109 38.3685 106.361 37.75 105.723 36.9297C105.098 36.0964 104.616 35.0612 104.277 33.8242C103.939 32.5742 103.77 31.1159 103.77 29.4492ZM107.227 27.4766V29.4492C107.227 30.6211 107.311 31.6432 107.48 32.5156C107.65 33.375 107.917 34.0911 108.281 34.6641C108.646 35.224 109.108 35.6406 109.668 35.9141C110.241 36.1875 110.924 36.3242 111.719 36.3242C112.682 36.3242 113.47 36.0898 114.082 35.6211C114.694 35.1523 115.182 34.5339 115.547 33.7656C115.924 32.9844 116.224 32.1445 116.445 31.2461V25.6992C116.315 25.0352 116.126 24.3971 115.879 23.7852C115.632 23.1602 115.319 22.6068 114.941 22.125C114.577 21.6302 114.128 21.2396 113.594 20.9531C113.073 20.6667 112.461 20.5234 111.758 20.5234C110.964 20.5234 110.273 20.6667 109.688 20.9531C109.115 21.2396 108.646 21.6693 108.281 22.2422C107.93 22.8151 107.663 23.5378 107.48 24.4102C107.311 25.2826 107.227 26.3047 107.227 27.4766ZM129.258 36.8125L133.965 17.8672H137.637L130.664 42.2617C130.495 42.7826 130.267 43.3424 129.98 43.9414C129.707 44.5534 129.355 45.1328 128.926 45.6797C128.496 46.2266 127.982 46.6693 127.383 47.0078C126.784 47.3594 126.081 47.5352 125.273 47.5352C125.026 47.5352 124.707 47.4961 124.316 47.418C123.939 47.3398 123.665 47.2747 123.496 47.2227V44.293C123.574 44.306 123.698 44.319 123.867 44.332C124.036 44.3581 124.16 44.3711 124.238 44.3711C124.915 44.3711 125.488 44.2604 125.957 44.0391C126.439 43.8307 126.849 43.4727 127.188 42.9648C127.526 42.4701 127.812 41.7865 128.047 40.9141L129.258 36.8125ZM126.211 17.8672L130.41 34.2734L131.309 38.082L128.848 39.4102L122.441 17.8672H126.211ZM144.746 9V39H141.309V9H144.746ZM153.926 17.8672V39H150.488V17.8672H153.926ZM150.293 12.2617C150.293 11.6758 150.456 11.181 150.781 10.7773C151.107 10.3737 151.595 10.1719 152.246 10.1719C152.897 10.1719 153.385 10.3737 153.711 10.7773C154.049 11.181 154.219 11.6758 154.219 12.2617C154.219 12.8216 154.049 13.3034 153.711 13.707C153.385 14.0977 152.897 14.293 152.246 14.293C151.595 14.293 151.107 14.0977 150.781 13.707C150.456 13.3034 150.293 12.8216 150.293 12.2617ZM162.852 22.3789V39H159.395V17.8672H162.656L162.852 22.3789ZM162.012 27.6328L160.605 27.5742C160.592 26.1289 160.755 24.7943 161.094 23.5703C161.445 22.3333 161.94 21.2591 162.578 20.3477C163.229 19.4362 164.004 18.7331 164.902 18.2383C165.801 17.7305 166.797 17.4766 167.891 17.4766C168.75 17.4766 169.531 17.6198 170.234 17.9062C170.938 18.1797 171.536 18.6224 172.031 19.2344C172.526 19.8464 172.904 20.6406 173.164 21.6172C173.438 22.5807 173.574 23.7591 173.574 25.1523V39H170.117V25.1133C170.117 24.0065 169.993 23.1211 169.746 22.457C169.512 21.7799 169.147 21.2917 168.652 20.9922C168.171 20.6797 167.559 20.5234 166.816 20.5234C166.139 20.5234 165.508 20.7122 164.922 21.0898C164.336 21.4674 163.822 21.9883 163.379 22.6523C162.949 23.3164 162.611 24.0781 162.363 24.9375C162.129 25.7839 162.012 26.6823 162.012 27.6328ZM182.246 9V39H178.789V9H182.246ZM192.969 17.8672L185.449 27.7305L180.801 33.082L180.566 29.2344L183.77 24.8203L188.809 17.8672H192.969ZM189.805 39L183.867 28.9219L185.645 25.6992L193.828 39H189.805Z" fill="black"/>
<rect width="10" height="10" fill="#DB485A"/>
<rect x="10" width="10" height="10" fill="#DB485A"/>
<rect x="10" y="10" width="10" height="10" transform="rotate(90 10 10)" fill="#DB485A"/>
<rect x="40" width="10" height="10" transform="rotate(90 40 0)" fill="#3AB8D4"/>
<rect x="10" y="20" width="10" height="10" transform="rotate(90 10 20)" fill="#DB485A"/>
<rect x="20" y="20" width="10" height="10" transform="rotate(90 20 20)" fill="#DB485A"/>
<rect x="30" y="20" width="10" height="10" transform="rotate(90 30 20)" fill="#935A9F"/>
<rect x="30" y="10" width="10" height="10" transform="rotate(90 30 10)" fill="#935A9F"/>
<rect x="20" y="30" width="10" height="10" transform="rotate(90 20 30)" fill="#DB485A"/>
<rect x="30" y="30" width="10" height="10" transform="rotate(90 30 30)" fill="#935A9F"/>
<rect x="10" y="40" width="10" height="10" transform="rotate(90 10 40)" fill="#DB485A"/>
<rect x="20" y="40" width="10" height="10" transform="rotate(90 20 40)" fill="#DB485A"/>
<rect x="30" y="40" width="10" height="10" transform="rotate(90 30 40)" fill="#935A9F"/>
<rect x="40" y="40" width="10" height="10" transform="rotate(90 40 40)" fill="#935A9F"/>
</svg>
